<mxfile host="65bd71144e">
    <diagram id="7vU4rPalctKvF5x5buxx" name="Page-1">
        <mxGraphModel dx="489" dy="1708" grid="1" gridSize="10" guides="1" tooltips="1" connect="1" arrows="1" fold="1" page="1" pageScale="1" pageWidth="850" pageHeight="1100" math="0" shadow="0">
            <root>
                <mxCell id="0"/>
                <mxCell id="1" parent="0"/>
                <mxCell id="5" style="edgeStyle=none;html=1;exitX=0.25;exitY=1;exitDx=0;exitDy=0;entryX=0.5;entryY=0;entryDx=0;entryDy=0;" edge="1" parent="1" source="2" target="20">
                    <mxGeometry relative="1" as="geometry"/>
                </mxCell>
                <mxCell id="6" style="edgeStyle=none;html=1;exitX=0.75;exitY=1;exitDx=0;exitDy=0;entryX=0.5;entryY=0;entryDx=0;entryDy=0;" edge="1" parent="1" source="2" target="21">
                    <mxGeometry relative="1" as="geometry"/>
                </mxCell>
                <mxCell id="2" value="(auth)" style="shape=trapezoid;perimeter=trapezoidPerimeter;whiteSpace=wrap;html=1;fixedSize=1;" vertex="1" parent="1">
                    <mxGeometry x="80" y="60" width="120" height="60" as="geometry"/>
                </mxCell>
                <mxCell id="10" style="edgeStyle=none;html=1;exitX=0;exitY=1;exitDx=0;exitDy=0;" edge="1" parent="1" source="7" target="9">
                    <mxGeometry relative="1" as="geometry"/>
                </mxCell>
                <mxCell id="7" value="(main)" style="shape=trapezoid;perimeter=trapezoidPerimeter;whiteSpace=wrap;html=1;fixedSize=1;" vertex="1" parent="1">
                    <mxGeometry x="320" y="60" width="120" height="60" as="geometry"/>
                </mxCell>
                <mxCell id="36" style="edgeStyle=none;html=1;exitX=0.25;exitY=1;exitDx=0;exitDy=0;entryX=0.5;entryY=0;entryDx=0;entryDy=0;" edge="1" parent="1" source="9" target="28">
                    <mxGeometry relative="1" as="geometry"/>
                </mxCell>
                <mxCell id="9" value="(setup)" style="shape=trapezoid;perimeter=trapezoidPerimeter;whiteSpace=wrap;html=1;fixedSize=1;" vertex="1" parent="1">
                    <mxGeometry x="280" y="240" width="120" height="60" as="geometry"/>
                </mxCell>
                <mxCell id="11" value="Packages &amp;amp; Dependencies" style="swimlane;fontStyle=0;childLayout=stackLayout;horizontal=1;startSize=30;horizontalStack=0;resizeParent=1;resizeParentMax=0;resizeLast=0;collapsible=1;marginBottom=0;whiteSpace=wrap;html=1;" vertex="1" parent="1">
                    <mxGeometry x="110" y="-300" width="140" height="150" as="geometry"/>
                </mxCell>
                <mxCell id="12" value="t3" style="text;strokeColor=none;fillColor=none;align=left;verticalAlign=middle;spacingLeft=4;spacingRight=4;overflow=hidden;points=[[0,0.5],[1,0.5]];portConstraint=eastwest;rotatable=0;whiteSpace=wrap;html=1;" vertex="1" parent="11">
                    <mxGeometry y="30" width="140" height="30" as="geometry"/>
                </mxCell>
                <mxCell id="13" value="next-themes" style="text;strokeColor=none;fillColor=none;align=left;verticalAlign=middle;spacingLeft=4;spacingRight=4;overflow=hidden;points=[[0,0.5],[1,0.5]];portConstraint=eastwest;rotatable=0;whiteSpace=wrap;html=1;" vertex="1" parent="11">
                    <mxGeometry y="60" width="140" height="30" as="geometry"/>
                </mxCell>
                <mxCell id="14" value="uploadthing" style="text;strokeColor=none;fillColor=none;align=left;verticalAlign=middle;spacingLeft=4;spacingRight=4;overflow=hidden;points=[[0,0.5],[1,0.5]];portConstraint=eastwest;rotatable=0;whiteSpace=wrap;html=1;" vertex="1" parent="11">
                    <mxGeometry y="90" width="140" height="30" as="geometry"/>
                </mxCell>
                <mxCell id="15" value="Item 3" style="text;strokeColor=none;fillColor=none;align=left;verticalAlign=middle;spacingLeft=4;spacingRight=4;overflow=hidden;points=[[0,0.5],[1,0.5]];portConstraint=eastwest;rotatable=0;whiteSpace=wrap;html=1;" vertex="1" parent="11">
                    <mxGeometry y="120" width="140" height="30" as="geometry"/>
                </mxCell>
                <mxCell id="16" value="CSS variables" style="swimlane;fontStyle=0;childLayout=stackLayout;horizontal=1;startSize=30;horizontalStack=0;resizeParent=1;resizeParentMax=0;resizeLast=0;collapsible=1;marginBottom=0;whiteSpace=wrap;html=1;" vertex="1" parent="1">
                    <mxGeometry x="270" y="-300" width="140" height="120" as="geometry"/>
                </mxCell>
                <mxCell id="17" value="--bg-main: #313338;" style="text;strokeColor=none;fillColor=none;align=left;verticalAlign=middle;spacingLeft=4;spacingRight=4;overflow=hidden;points=[[0,0.5],[1,0.5]];portConstraint=eastwest;rotatable=0;whiteSpace=wrap;html=1;" vertex="1" parent="16">
                    <mxGeometry y="30" width="140" height="30" as="geometry"/>
                </mxCell>
                <mxCell id="18" value="Item 2" style="text;strokeColor=none;fillColor=none;align=left;verticalAlign=middle;spacingLeft=4;spacingRight=4;overflow=hidden;points=[[0,0.5],[1,0.5]];portConstraint=eastwest;rotatable=0;whiteSpace=wrap;html=1;" vertex="1" parent="16">
                    <mxGeometry y="60" width="140" height="30" as="geometry"/>
                </mxCell>
                <mxCell id="19" value="Item 3" style="text;strokeColor=none;fillColor=none;align=left;verticalAlign=middle;spacingLeft=4;spacingRight=4;overflow=hidden;points=[[0,0.5],[1,0.5]];portConstraint=eastwest;rotatable=0;whiteSpace=wrap;html=1;" vertex="1" parent="16">
                    <mxGeometry y="90" width="140" height="30" as="geometry"/>
                </mxCell>
                <mxCell id="20" value="sign-in" style="ellipse;whiteSpace=wrap;html=1;aspect=fixed;" vertex="1" parent="1">
                    <mxGeometry x="50" y="170" width="80" height="80" as="geometry"/>
                </mxCell>
                <mxCell id="21" value="sign-up" style="ellipse;whiteSpace=wrap;html=1;aspect=fixed;" vertex="1" parent="1">
                    <mxGeometry x="150" y="170" width="80" height="80" as="geometry"/>
                </mxCell>
                <mxCell id="28" value="" style="swimlane;startSize=0;" vertex="1" parent="1">
                    <mxGeometry x="150" y="365" width="340" height="965" as="geometry"/>
                </mxCell>
                <mxCell id="30" value="&lt;h1 style=&quot;text-align: left;&quot;&gt;Initial Profile&lt;/h1&gt;&lt;h1 style=&quot;text-align: left;&quot;&gt;&lt;p style=&quot;font-size: 12px; font-weight: 400;&quot;&gt;- Check for logged in user&lt;/p&gt;&lt;p style=&quot;font-size: 12px; font-weight: 400;&quot;&gt;- if no user, then redirect to sign-in page.&lt;/p&gt;&lt;p style=&quot;font-size: 12px; font-weight: 400;&quot;&gt;- Else, get the user profile.&lt;/p&gt;&lt;p style=&quot;font-size: 12px; font-weight: 400;&quot;&gt;- If ther is no user profile make one based on the user data.&lt;/p&gt;&lt;/h1&gt;&lt;h1 style=&quot;text-align: left;&quot;&gt;Check for server&lt;/h1&gt;&lt;h1 style=&quot;text-align: left;&quot;&gt;&lt;p style=&quot;font-size: 12px; font-weight: 400;&quot;&gt;- Check for any user subscribed server&lt;/p&gt;&lt;p style=&quot;font-size: 12px; font-weight: 400;&quot;&gt;- If exist, then redirect to it.&lt;/p&gt;&lt;p style=&quot;font-size: 12px; font-weight: 400;&quot;&gt;- Else, open a dialog with a form to make one.&lt;/p&gt;&lt;p style=&quot;font-size: 12px; font-weight: 400;&quot;&gt;- If ther is no user profile make one based on the user data.&lt;/p&gt;&lt;p style=&quot;font-size: 12px; font-weight: 400;&quot;&gt;&lt;img alt=&quot;&quot; src=&quot;data:image/png;base64,iVBORw0KGgoAAAANSUhEUgAAAO8AAADgCAYAAADrJjFsAAAABHNCSVQICAgIfAhkiAAAABl0RVh0U29mdHdhcmUAZ25vbWUtc2NyZWVuc2hvdO8Dvz4AAAAtdEVYdENyZWF0aW9uIFRpbWUAVGh1IDI1IEphbiAyMDI0IDA5OjA1OjI0IEFNIEVFVBX7SMoAACAASURBVHic7L13mB3Fmaj/VocTZ87kPCMUUBYSQqCAEILFgASYYGwDtvHaLPZe++4+v7U32NeLf2sv967BXBvsBYy1i3HAYJOThEQQklBAOecszYw0M5ocTuru7/7RZ86cGZQAiRnJ/T7PmXOmuruqurq+rvR9XylACgsK0ZRGPBFH13Ucx8HDw2Pgoms6BkBhYSEPPPAA2VnZKKUQpL/z5uHhcRI0TccwNINgMMSNN96ErmkopUD1d9Y8PDxEQNw/xz1uqONJqie8Hh79jtuOKk4kkBpKnVCyPTw8Bi5af2fAw8Pj4+EJr4fHOYonvB4e5yie8Hp4nKOkhVd1//Fmmj08zglc4U0JbHqN15t89vAY8PR0mzNbXa/19fD41Oho6+j1f3trO7Zln7IR9ca8Hh79zPtL3+dn//dnALS3dfDt//ltotHoKRtRQxzHVcHy8PDoF2bfMJtQMMQDP3mAaFeUPzz9h9O6zmt5PTz6CyHdNR41ehR79uwhLy/vtC/3hNfDo5/ZuWMnc+bM4ReP/IIxY8fw8M8fwbFPbZZrfAp58/DwOB6pMW1tbS3f+ta3CIfDXHf9dWiaRmNjI0XFRSe/3FCGjBs/jjVr1qAb+qeQYw8PjzQpsz9xBFI2QpqmTss012t5PTz6GaUUSs+Q1NNcqvWE18OjP/kEOhXehJWHxznK+Sm8gjuGOAvL16czC/hJaW9rp721HcfyHAF6nJjzs9us3HFEfV0Dc+b8mp07d+L3+7n00su47dZbKSkrcQW7b5fleGF90PSM993HjONkHD1ylEmTJhGJRNi+Y3vveKFH9/xkaXzCPJwxTpSP08nfR7mHzLI5WfhAKZczxPknvKkHtHjREu688w6O1h1F4XrEfPI3TxII+Pna17923GtORyB+9tDPeOXVV3jzzTfJys768HkKcPjYeuKBQJBhQ4cRzgp/ON4+v8URlPYRfZBlVGBxBMdxeq0yiCOu36SP0ifrjvM0hUNE3NlUhxOmI5LKx+mU3wnO6dYcVCrjhPNIgHVNaT8qLinmm9/8Jpp2HvSiFSTiSWbPnsWhw4eYPWs2L7/8Mvfccw8KxV9/7a851nCMxYsXE4/FKS0rBQXz3pjHunXrGDZkGKZpsmXzFl5//XXWrllLfV09OZEcbMvm3m/cy759+xg2bBgHDxxk6NCh6LrOxg0bWTD/LVavWoXjOJSVlaE0t/WfN28eFwwazPLly3n11VepPlzD4MGDOXToEC++8CJrVq2hsrKSrOwsNKVRVlbG5ZdfztAhQ3nllVfYuX0nW7dsZefOnWzZvJWc7AiRnAhtrW288NwLrFixgqNHjlJVVYWu6WmBbmpsYv78BWzetImx48aCQDQa5fnnnmff3n2MHDWSrq4oc+fO5e233ubgwYPk5xeQHckGYOHChaxbt44LBg3G5zNpOtbEvHnzqKmuYdiwYWzauJlly5YzevRoFi9azNw35jJhwgQMw0g/iwP7DzJ37lyWL1tO9eFqsrOzieREsC2bjRs38vprr7Nhwwb8Pj9FhUUoFIsXL2HLli0MHz6CV15+mSWLl1B9uJrqw9UMHToUFMRjCebNncu2bdsYVDUIBJYsWcLrr73Orl27qSgvJ5wVJh6N88Ybb5BMWoSCQZ599lmOHDnC8OHD+6uGnjkMZcjFEy4WK2nJ+cL8efMFkNKSUkkmkhLtivY6/tCDDwkgd3/57nRYbk6eALJvzz6Z8+s5Aoihm6JQAsh9/3qfDB0yVHRN71Zqk/KyCknEEvLD+36YDuv+/MP/9w8iIjLvjXkCyKWTLut1fMJFEyTgD6Tjz83JlaZjTVJzuEZM3ZTCgiJpa20Xvy8gmtKF1HmA/Nec/5bdu3ZLXirPhm4KIDOumCHJeFJEROykLa0tren4t23dLrZly3N/fk4AKSkuERGRUSNH9cpXdla2LHz3PXFsR8rLygWQVR+sEhGRJYuWiELJ8AuHi4jI3//d34uhm/KlO78kgIQCIWlpbpFELCEiItu2bhNd00VDEw1NAPnMNZ8REZF/+ad/EUB8pi+d9pP//aSIiEybMk0CvoDcdeddAkhhQVH6+Wzful1ERFatXCWAFBUWSd3ROrl65tUCiN/nF0ACvoAcOnBIOts7JS83Ty6ZeImMGzNOALnn639zNqrdp855KbwP/+xhAeTaa651A5yMg47Igz95UAD58pe+nA6LZEcEkJrDNXL7524XQL73L9+TZMKS//zFf8rRI3WyYd0GiWRHJJKdI6tXrZY9u/dKS3NLuvL98ek/yuuvvS7hUJYAsuz9ZTJv7rz08Reef0EefOCnolIV+Y4v3CFbt2wV03CF77VXX5OjtUfF0AwpKiySRDwhq1auku3btstjjz4uoKQgr0AajzXKrOtmSdAflB/9249EHJHrr72+lwAkE64Q33XHXaJrhvzzP/6ziIjc+cU7BZB//cG/yqO/fFQAqSirkJUfrJTv/MN3RKHJsKHDRESkqrJKAFm7Zq2IiKz8YKUAMnrkaBER+db/+FZa+GbPmi2PPPwLsZO2JOKu8P409ZL8/Oc+L7Zly5//9GdZ+cFKOXzosABiGqYcPXJUdmzfIeFgWMrLyiWZsGTqlKli6IYA8rW//rr86dk/yVe+fLcA8sP7figiIl+9+6vi9/nl33/87/LLR34pgMy6frZYSUsee/QxAeS2W2+T9rZ2CQfDoilNsrOy5Z//6Z9l4bsLz1rd+zQ5L4X3wQd+KoDcdMNNHzqWiCfkpw+6x79691fT4aFgSAA5fOhwulUAZPSo0bJ502ZJxBMSi8Ykkh2R/Lx8aWpsEhGRuW/MFUBGDB8hXZ1dIiLylS99RQB54CcPypvz3hRAJl0ySRzLkcaGRsnOikg4GJZDBw+JYzty9VVuq/H075+W+roGMXVTKisqRUQkFo2JlbSktKRUAJk3d57EojHJzoqkW7Lrrr1OxoweI0BaSB3bva9uQSkvK5euzi7JieSIaZjS2NAol0y8RAB5+cWXxUpYUlNdIzmRHAkFw1J9uFqqKgcJIBs3bBQRkZUregvvN7/xTbcl+9o9bmIZL0nHdmTRwkXpcqysqJS3FrwtIiLP/PFZAUShyQ2zbpDrr71e/KZfAv6A1B+tlxlXzBBAHv75wyIikownZfWq1QLIxRMmioiI3xcQQKoPV8sNs24QQIYOHiqzZ90gV0x3r6+qrJJ4NC6RrIgYuiGbN23+xHVrIHEeDHI/TH5+PgC1R464ARlLRoZuZOzF1DNzYVkWAPF4nAcfepBfPzGHYCDI9h3buWj8RcyZMwfbtkkmk8Tj7p5O6SUp3C1jgqEgAKFwCIDm5iZisRgAkUgEpSt8Ph+ObeOIUFhYiNIUgUDAzYNtIeKgNEUymQTAH/Bz7bXXcbTuKN//3veZfcNsujq7UEqhazp1R+uorq4h4A8wauQoikuK3TtTYCUtKqsqGTZ0GLVHavnRv/2I1rZWpkyZQn5hPrFYHICCwgJ0U6ewsBBd04nFogSDwXSZJBNuXrqiXam4e8/4TLxkYk9xZpT1zKtn8tqrr1NZXkl1TTXXXX8t3/2H7yLilr9h6FRXV1NXX8f48eMZOXIUlmVh2zZ+089nPnMtAI44XHrppVw8/mJ27NjOyy+9TDwRY/xF46morKCtvQ1NaSSSCQ4fPkRnRwdTJk9h0KBBxBNxlFIYhsngwYOxLZt4NH5eeIs5L4V39uxZRLIibNq4kScefyIto3t376WxsTF93q5dOwGor6snkUwAYBomXZ1Rvvm336CtrY3//4f/BsBvfvMbwPVgr+s6mqaDgpGjRgKwevVqYtE4iXiS1avXADB61Oi0AHRXeMHVYdV1DcuyAdwXAbgThqlKFY/HEQd+/rOf896ihVx5xZX85IGfAJBXkEdxcTGapnH//fezddsW1q5fy7p16/jOd75DKqPpiaO///u/B+AXv/wFAPd8/R4AZsy4goA/wMsvvQzAurXraGppIicnl/yCfMJhd8b7wMEDAMydO8+9hz7237rWRyfeAaUpmpuaufHGGzhcfZg5T8zB0A1eevlld9IJyApnsXHTRtZvWM+qNat47733KKsoQ9M0bNvGcWxwwOf3gYK7776bWDzGd7/7XQAe+ulDAIwYMRJHHG65+RY2b9nMug3r+GDlByxYsIBQKITSNBDBtm00TcMf9J8fM87nY7dZROQH/+sH6S7b4AsGy4XDLhRDN2TJoiUy/80Fomu6BPwBGTt6rORk54ihuWOsg/sPyhc+/wUZMniI3HbrbXLxhIsFkG/e+00RcceBCiVDhwyVSyddKl0dXTJzxkwBpKy0XIYOGZrubseicXnxhRd7jb/b29olJ5IjkeyItLW2iYikx9hP/eYpOVJ7RAzdkLzcPKmvaxCFEp/pk8rySrl4wsUyftx4eeJXT8hTTz4lgIRDYbnxhpvkmr+6RgoLCmXd2nW9ysGxRaJdUcnLzZOAPyglRSXS2dEp4ojs2bVHNKWJaZgyauQoKSwodMeV/+qOK//xu/8ogOREcmTC+AnpSadRI0eJiMg37v2GAPLYfz7Wu/BT3ecf/+jHMmzIMLnl5lvk8mmXi0LJtKnTJJlIpiePRo0YJTfOvlHGXzRerrv2OhERmTp5qihUr3uxkpbs27tPdE0XQzekIK9ArIRbZ9euWSc5kRzRNV2mX36F3DDrBhkxfIQ89ujjYiUtyQpnScAflJbmlt7zH+c45+U6r23b3H///QwZPISnfvsULS0tKBQ33ngjVYOqqKoaxIMPPshvf/tbRIQvffnLVFVW8sKLLxAMBrn66qvZu2cvmzdvRtd17r3nXh7/1eMAPPLII/zHf/wH0WiU0tJSfH4/z7/wPPfd90OWLn0f27L54ue/yP3/+378AR8lJSVcPu1yRowYAeK2shPGT8Af8BMIuN3sqqoqJl82mcKCQoKBIFOnTiUcDiPiMHHiREzTTK/pKlyLk6/d8zUMw+DRxx5l1063B3HNNZ+hrKysV3EoDQKBAFOmTGH+gvl89da70936YcOHsXjxYn78ox9z+PBhKisr+cfv/iPf/8H3AfjB//oBe/fuZceOHZiGya/nzGHx4kXpuC8cdiHTL59OWXnvNLtbtSmTpzB37ly2btmK0jRu/9ztPPzIwygUCxcu5Hvf/x5r165l9549ZGdn8dmbPgvA6DFjMH0mkUgkvS6r6zpDhg7h3nvvZdOmzVx55Qx0023xL5k0kQXzF/CTBx5gz57dNDU1UlhYyNSpU9B1ncsuvQwRwTR9Z6yaDQTOT5PA82gh/hMhkEgkiMVijBt3EYerD/H+kve5YsYV/Z0zjzPAeTnmPS3BlRN8n+ycEx0/WXj3pNapJkhOdvxDq8iniCuDCRMmkJuby+HqQ9xy861cMeOKD+tMy3F+f8z0PjIfN/7Tve48mJg6Eedft/l06au+eDyBP5WK4+mEq9NUz8sMkz5hH1M3VxwhEAhQVlbGTTfdxKOPPgqAZvR5Zx9H9fJT67l83HRO97rzuAf2lyu8/cWJKlO3YJ5IQD/GUEDpivUb1n+0izzOGc7PbvO5yEdQ7D8hGd3c7vXnDx0/3u++YZ+kG3sed1MHGl7LO5A4meB+RPM4hTqxgJ7IguqTvDjO4+7pQMUT3vONzPHx8YT3E5jYeQws+qfb7HWtzg59J54+zq6P58qz+Sj5/Kj3dLbL4FTDl9Okf4TXe7OfHQQkc6b642we1x/CexbTlEzHCKfL2a6fx5vd/xicPeEV2L1rN4sXLWb7Vtedy4rlK0jGkwPz7X6i8WF/TcL0TfM08rBw4ULq6o6ya9cuol3R3gdPtxXW3OeW3rnOcdOeN/fN08tH93En9ckMyyxPJ+O777ayZ6C8xRY62jpYtnTpieM8SdjqlauxB7gPsbMmvL/+9a/ZsWMHl116GZquIY4watQoTL/Ze1yWwrEd5ERl5fR825bdM5OacX63YzhxwLF6x+XYTuq67v+lt6KCgOP0ji8dlwO2TWoGt/csbvdvccTdkjEzy7aTyq+D2NIrPO3ETnruCXHzna4wyr22O5+ScsxtW06vPFhJK/1/e3sH8ViciooKgqEgC+YvINoVJZFIHL9Y7eNLSWlpKVmRLF579TVaW1tJJpIcO9YAuKqnva6V1D1ZTq/ZckfcDexsy+7pDQg4dqqsVap8M49l3pu4Atgrj9JzXqYjQHFSzzPj+Vm2TdJKEovHel3v1gUn1UuR9LXSpywGDx7sGor0qRO98tj9fDPy3J237vw59ofjPlOcFTc4Lc0t7Nm9hzvuvAPTZ7qmb0rxX3P+i+zsbJa+v5TRY0bz4osvoQR++9RvaW9v55lnnmHG9Bk4jsOaNWtYt24dI0eO5JlnnmHEiBE8/PDDtLS08OKLL3HppZfyzB/dcNM0ue+++7hyxpXcf//9HDp8iLKyMrKysqivq+fxxx+noaGB9vZ2rGSSZ/74DFu3bWXf3n2UlJTw7z++n4aGY7z9zjsMHXohuqbzq8eeICcnh98+9Vv27NlNIp4kGovyi1/8guamZgYPHozpM4lF4/z+979n+7btVFdXM3yE617l6NGj3HfffSSTSX73+99x+bTLWfr+UhYvXsyK5StwHKGpsYnHHn+M6uoadu/excYNG9mxcyd5ObksfX8pC999l6VLlyICjuPw058+SHtbO6+//jqTLpnE7l27WbjwPZ595lnGjx/Pnj17GDRoEAsXLqS8rJznX3gey7JYv349uqZTVFzEf835Ly6ecDGarvHQQw8x/Yrp/PpXv6a2tpaSklKefvppOjs7CQaDvPrqq2iaRkFhAS+//AotLS3MnTuX0pJS8vLyUJqioaGBd95+h4ULF9LZ2cmQIUMA2LZtG7956je0tLTwzDPPMmPGlaxbv56VK1fy2muvMWXKVH796zmsWr2KrVu2MX/BAurr6pg3bx7Tr5jOa6+9xtq161iwYD4XXDCYSE4EFOzfv5/58+ezaPEi8vLy2L59O3/4w9PU1dUxf/58Lp9+Ob96/FccOXKUd995h0hOjmv5paChoSHt2mjP7j1UVlbyox/9iGgsymuvvsaYMWMJhlzzzDlz5jB58mQefOBBtm3bxro163h/yfs0NTfxu9/9jmuuuYbXX3+d/fv388ILLzBtyjSe/dOztLS08NRTvyUSibB//34WL17M0qVLycrKOuX2JR8V7ePNapycWCxGbl4uAG+8/gb3//v97N+3n2QyyZixY9izdw+JeIIDB/aTl59HY1NjShFfqK6pRlMal112GYcPHwaBvXv30tzUzJQpU7jpszdx+eXT2LJlC6bPTG8TYVkWhmFQXFTMX3/trykpLXFvUGlYSYvx48czZepklixeQk5uDiUlJezesweAC4dfyJe+ciezrp/Fzp072Lx5M+PGjWPt2rUMu/BCCgsKWbhwIclEkgkTLuZzn/8cwWAQcSAQ9HPFFdMZOmwoWzZvSbfAiUSCi8ZdxC233sJtt97G+vXrWbtuLXl5eRSXFLNu3VpMn8m0qdO4+ytfYfjw4dQ31DNz5pWUlZWxddtWvvU/v8V3/+m7LFgwH01TTJ06jc99/nOMHj2GttY2RowYwaCqKioqKjh65CjganPZlk0wFKSiooLZN8zmjjvuYPnyFdQdrSMYCqYV+seOHUtTYxPxeJzDhw5z6NBBqqqqiMViGIZBWVkZ18++noLCAqqqKvnCF7/AzTffzP79B1wvmuLaTldUVpBfkE9TU1O6DiTiCaZPn87Nt9xMeXk50WiUCy+8kOKSYiI5EWpra7Esi7vuvIsbbriB8rJyPv/FzzNs2DBqa2pZunQpJSXFlJaUsnrVqnS8Fwy6gBEjRlBWVkZ1dTWO43DttZ/hi3d+kYKCAhqPNdLV1cWtt93CnXfd1ct8sbCgkFEjR1FUXMSmlNHJxEsmcvMtNzPxkonU1NS4J6ZaZYBgKMTdd3+VWbNmkZuby4033Uh2tuvja+rUqWRlZeHz+airr6PuaB0zr5pJcXER48aOY8mSJRQWFBKJ5PD++0vPqIwBGK7onlnhjUQiHDp0CICbPnsTwWAI27LRNJ14LMG4ceOYN3ceQ4cORRyhvLyCceMuYsyYMRQWFqbfJZWVlbzw/Av81V/9FbZj09HRmU5D13Qcx8Hn84HT023u9ujYbYVTWFzIP3znH1iy5H327t1LIplg+uTpFBcVM336dBKJBMXFRTi2w5hxo/jV478iEAjwxS/cyR+feYZpl08jFAozbdo02tpaKSwsSOdBAe+8tRDTNBk6bCjhrI1p21bDMF3bXSAai5Kbm4tpmky8eCKBQADTZ1JTU0tpWSmOOFw88WIGXzCYF154gRlXzkgb6EOqqyqQm5Pjpqvcl8NDP32Ie/7mHppbmgmGgukK190d7Lbn1XSNrq5O3nzzTaZOnZqO99JLL+W5555j0qRJNBxr4J133uWuu+5k5QcrMXSj11AgFHJte3Xd6JkVU/Crx3/FVVdfxahRo9mze3dPJVBQVOQ6BkAcbCvJk08+yZ133Uld3dG0DXM4HMayLPx+f8+lSmEYBpMmTWLChAkEAoF013TOnDlce921GLpBY+plEcmOAGD6TBQq7QDB5/O5NsEpFry1gFAozMSJE1m1ahWGaRAKuRZWroOGnu5vt0qrphRKgSBpayyfz4848PTTf+Tuu7/C3r37cByH0WNG89yfn+OyyyYTCAUwTZNxF40jHM4imHqeji0oxfG9fn5EevrJZ6hbLo57k2PHjuPxRx/njdffYMuWzfgDfvw+H7ZtcfXVV/P+++9z1cyrKCouIhDw8/77S3j33YVEo7F0XiaMn8DadeuYPn06FZUV7N27hzden8u2rdsYM3YMQ4YM4fd/+AN/fu7PhMNh9wH0mWA6eOAgL730Eh0d7WRlZXHdddexcOF7LF261G29TRPbstMvsLy8fDSlEc4OctXMmcybO49169ayZesWRKRnaJEa3xUUFrL/wAGWLl3qCm7GM9m/fz8vv/gy7777LsOGDuOKK67grbffYsUHK9i3bx+GoaMpDcM0WLZ0GUuXLcVxHMKhMBdddBG/feq3PPLzR7j99ttxxEkLtK4bmD6TcFaY1atXU11djWGYaWN+TXfjHDJkCL//3e9JxBPMmjWLgwcPpru1YgslpSVs2rSJ0aNHc9G4i+js7KSs3PV6aZgGI0eO5Pk/P09zUzOmmXoRKNVT8QRy83LZsnkLH3ywopdPa9M00VNlpes6kgrbsH4Du3fvxu/3px6V9LJmC/gD6JrONddcw4svvsiiRYtobm529/NBEQwF2bx5M1u3bcM0DTRNSz8Tn89HVnYWI0aMZO4bc3nxxRd61c1QKMy+fXtZtWqVa6SvtPTLVtfdZwGknqFKvzBUKrz72zQMlAYiDsuXr6CpqdH1alJXR1NTM1u2bOZI7RGuuupq5r85n/fee49Dhw6xbu26Xr2IT4ypTJk44ZK0YfMnxbF7rJ1dz42xtAG0bdknuEikubFZWptb0/87liMH9h+UZ55+Jh0mIm58GcRjibSztb6O5rrT7OrokliffHS0d7jp2Mexzs4IspKWtLd19ATYGd/pPEXTXhu7w/bv2y8vvvCSxLpi4lg9EVpJy3XQZotYyZ7ysBKWaySfUUQdbR3i2K4nSPda97s7Pith9ThRyLiXzHvqdga3ccNGmffGvN730Odeu8PtpJ0Od8vX6qkfTo9/rG46Ozo//Gy7y8fJiNey3Xvsg2315COzTOKxeK/6k06vvU8cqeOO7aTz1tne6ZZTn2ujXdF0Xh3b6VUW6XJzesrYyXjOmem4+XYkHo2LYztSW1Mrv3jkFyLi+g174ldPiIhb/l2dXWJbtlhJu9f9fVLOuIaVUirdZTVMA8PsSaLXbgO9LiI9Ru7+f/OWzbz33iLuuefr6TBwx5iZ+Pym++PDbqncNDXN9S2VEa7pWtqpeV9/TH3RDZ2s7AwH6N2nZ9xKIBj40HHTNDENw3W5AunegG7o6KTe9qonEt3UCZmhnngEwtndeXRbVF3X0i5muq/JTLf7XjJbRtNnsui9RWzetJlvffvb7rNRqrcedZ9lmsyJy3T5ZpzXt8i6u5O90Og9U5vqEfQ6NxVfOrnue5TutI9vPB/K6pOe6s5XT8ZC4dBxp3Iyn1Wvrmt3V1kyfjsZUWT06Lqv03SFT/chjlBcVExebh5znphDVzTKHXd8EUjVA9P88HLYGUCZypRx4y9i9epVvSvDx+XjKNdnKNKntzr8JEr6GdeKLT3qvEqd+cWx4+Wzb1im4kTm777nnkigPopJ4InO6Q5PTcac1jxHprHEiQwnjnevp2MV1bccuskU+NNRMMm4rw+phh7vWZ8qH9Ln+3TJeAGdsIw+SZ0+SZJnjo/zhkm/0VXP4v2ZUJJPvUFPW3CPpxhxqnX601Hw76vpdCINm1OpN34SveSM9NNloXC/j1cux9POOtG9nuhFwwl+n0hwu8MyBeFUfFQNsuNdf7xy/6iScbJ6+0nzeALOjpLGR82kRu/Nhc9kPjK6kyetDJmVSlLKDyLHnQQ724gjJOIZihVnMu2MXo5t2T0zyt3C/HE41QusT0t3UpXFM1HRTyZ8Z6Ga9ReafIqV8iMhnBmhOd2WK7Uc8NorrxGPJzBMg7feeou2trYTdwNPJywz/Hj307eblhrT/ulPzx2/u/1xyYxLKZIJi0cffay33zLVJ5kTdQFPg2VLl3H0yFGaGpuwkz2Dx7a2Dp588jfHvaahvqFXXnq1iqcq279AdOBHFRXl3HvvvSeeUPq06K6kWsb/Z+JNmTneOMmYUylFTXUNHR3tRLuibNmyhWnTprF9+3ZWrVqFz/SRm5fL1i1bKSoqxkok2bRpM2Vlpel49uzew/p161FKx+8LsPKDVRw8dJgLLqji8OFa6uvq2bRxE6ZhuFpDqbxUH65l9aq1dHR0UlJarjZuIgAAIABJREFUzOpVaxk8ZBjxeBLT9LFh/UbKykupra7DcWDXjp1s27YdTem0t7WjKx2f38f+vQfQlMa6dWvZsWMHRYVF+APupJkILH1/OXv27KO0tJwN6zdgJR1qa49SWVVOPGqxbv0G9u8/QGVVFa2t7TTUN/DBihVoSnMVahqbWbHc3diss6OLwqJClr6/jNraWiqrKt37cVylmapBVcyZ81+0tbWSn19IMBQgmbTYtGkTky69hLVr1rN+3QYiWRGi0Ti/+c2TBANBysvL2b9vPytXrqSstAzbdti/fx+bN28mNye39wRh5rM8G6iP8DnbeemD5uCckQXjM8bZKoRTjTkF7KTNzKuuYtmyZSxbuowbb7iR2tpa5r85n1GjRvHSSy/R2tLK8uUrACGRTPDO22+nozp08DDvvPMOlVWVhENhbMuhuLiUrs4oa1ZvZOuWbSxdupzKqirmzZvn6rym0k8kLUaMGM27CxfR3NhJImHT2dHFSy++QuOxZp566ne0tUR59933iMcT6IbJBRcM4bHHHkNTOu+88y4AC956i3Xr1nPwwEHKy8vT94aCP/zhjyQSFuVlFTi2sHnzVvLyClizZh2HDhylszNGJDuXWCzJ/DcXcKS2lhdffIFBgwbxyiuv0tHexYsvvsSoUWNYvmwFlZVVPP7YExiGSVNTE0u7tYg02LVzFy3NrVhWkvKKcgzDcHXDBZzurTdRDL9wOH9+7rn0/ERpaSm7du5i3rx5jB49mscee4x4PMZzf36OwsJCVynneGPss8FHEdwz1dB8BAaeG5yzVQCnijdV+LqhMW7sOAzToLi0mMOHDjP7htkMGTKU8ReNp7amNq3ob9s2ps9MX3/gwAEmT57MyFEjKS4ppKmpmY0bN1Nbe5SW5lYMw8+0y6czfMQwgqEQSavHwqruaD0rV66ipbmVzk5Xk6yiopSamhqWL1/BzbfcyubNW+nq6iISyWHvnr2sXbsW27apqCrjwMGD7N2zn+ysbCZPnkxzczN79+4lK5yF4wjiQEd7B9d85kpGjboQw/AxZsxYxowZzmWXTqalpYWuriibNm2ipqaW1rZ2NE1jytSpjB47mrz8PCzL3Y6lva0N02eSFQmxe9dudu/ezZEjR2hpaUkXp2XbaJrCNExKS0uJ5GS5HZ+Mcdr+AwfYuHEjnZ2d5OfnE4nkUFFZQU1NDSLCBx98gCNCNBpl2IXDGHfROHeZaAC1Nf3JwBPefqRbZa+ouMjd70ggvyCfNWvWAML+AwfSW4DEYjGOHTuW3vdIHKGosJADBw4ArvXM00//gS/ccQtjx45xZ7010up63dug2LZDV2ecZcuW8vkvfpaSkuL0OqtmuHsgbd68iWuvu5LFSxZxwQUXsG3rVnRD57bbbsXvc7vEI0eO5Pnnn2fylMmEwkG+/XffJj8vn7fefgtNd9PWdI3mpo6UoYOFz+fD1SoVsrKyePXVV7juumu5eOIExHGwLIusrO4NxF2d6cLCQo4dO8ZX7/4qADm5uXzuts/xN/f+DTd99qZ0WTqOjc/0oTSFk2EFpZQre2tXr6e8vIwbb7wRTdPRdEUyteWM3+9n2LBh3HHnHXz/f30Pn+lzW1xcq52mxh4d6r/kMa8nvJmk3ui6buDz+bEsiyFDhtDe3s7DDz9MYWEBgwYPYtKkS/j5zx9m8eLFad1YUIweM5pYLMZ//J//YMGC+VxxxXQe+Mn/ZevWLeTl5eD3GQRTShvBQBBd09F1jVDYTygU4KcP/BzT1DFMjUjEFZorrric8eMvAiA/L4cxY0czdOgQNm7YwBNPPMGQoUMRB66aORMEhg0dxob1G/nJ//kJS5Ys4TOf+Uz69m695RZ++ctH+NnPfo4jNqapoxsQzgqSTMa59LJL+M///CUrViyjuLgQw9DT9xcMBonH49TX1bNo0SIefuRhNqzfzHe/8x0ee+wx7v/x/axbuy6dViQSIRAMMGvWbB577DG2b90BmvuCjOTkMGLkSN5b+B6PP/44g6qqcGxhxIgRPPTgQ0y8eCKNjY38+4//nTlPzAEFoWBq87aWFp566qmzWQvOGRQgl116GSuWrzgzShrnG6ejmJAZLq4tq6a0UyoJdGuinTTdU6TV3d1ftnQFiUSCq/9qZs85Did8Pbu2yW7rbluClqGVpfpWg1Q8u3ft44MPVnD3V7/M8mUrOdbQwM233tQ36g/dp2MfpzwyWkxxUmmKayDQ7xOn5wieA7pTcTpKGH3C0wruxxPAjGtPOlF4vIm7Xss9PfHu3bMfn8/HlMlTeqXrOCmhOU4ySiOt5qh3r7GfaEkqdTvDhg2lra2Vtxe8S2lpCZdPm4KdFPf6vvKWeZ/dSiEnKgcFdNvy93VQn3nuibTR/kLxWt6zQbcSwpmsXCca2x1v+euTptE3npO14LacWMHmo45HT5b/01XD/Auip+X9Cy+IM8qnWZYnUkP8OHk4Uat2Er3d0+o9nAn6xuXVV6/bfFY4GxXr06ysHyUtT4j6DU94PU6PE1nbeMLbb3jTeh4e5yjplvdURukeA5yPo6zwUQ0e+hoJeFWmXzHA9Rt0pty+enwK9JqYSi34Ku2jC/DJzj8ddVKPfiXlWQsaGxvp7Oii6VjTKS7x6Hd6LZmolCG49BxTbnDmJ/PYSeM93SWuv2C1xIGCAa7rzMsuu4ybbrqJl156ieXLlzPogkH9nTeP43GcCSNRGgnABpJAu0BTK7R1JEkkkuiagc/w4TMgJxvywhAGbIGAgvTqfkJcZ8BJ4FgrsT37ECBYVABDBoFJj+eNTA0vj37BADjWeIz77ruPkuISLrnkkrRTaY8BQN/xZYawOLgC2wxsqxY27j3K9oNHOdbRRWfCImELsZiNpvkQG7KCYUxdyA3pDKvI46IhJVwyIkCRAVkOoCvYVs3OPz7HsU3bMbriWIkkwcIC7IIcLrvtJpg5FYIpifcEt19RgEybMo1XXn2FnEgOXdEucnJyPP3SgcLxWlogChztghXb23l75SZq2pJ0KT9xZSC6gS0KQYHSUeio7hGS46CLhSkxTGLkhTWmjBnCl0aXU7VqHWvnzKGgs4vsaAI/GprSiaFo04WjusPoW2eT942vuE23V0X6FQPAdmyKiopQmupxVeoxMMiYERYBR0FDApZsSfDnd1fQaPvo0kIkDR8WKj2+TcuVOAg2bhsNomlYYpAkGyGbxoRN3YYaGt9cwO0bVjG8pZUsw0GUjSgdB0FzHHIsnRxlUv3yfPIK8uGuG+D4nlk9PiU8JY1zACs1DO1ScKAF/vuFdeyq7yRmZtOpdBzdh6M0urdXEZGMLm33ANXFVf5PTVIrhRIh37Iorz1GQbSTgCnEwgZOIES0vQsRB3w+ApoPrS1GqaazZ/5CLrzuSijLwqP/+PB2J3KCj8enR0aZW0Acd3y7dBf82xOL2NwQp82M0Kn82IaJnfZR67pmdDvM3Z/e9DTkgsLB0IW8jhaGNx8jz07gANFwmPx//ieOFeSwoauNyu//I5ELB9HhJDCBWPVR2LLjUykKjxNjAGjizT0MSFLdZAt4Y1ULz8z/ACtUiOMYiNJQCjTN9UutaZrb4oogto0/5UzAdqTPypL7ZnCUoCnw64IRbSc/3oXfSZJl6SSPtLLtwZ8z4Z++zQRd49irb1C3ah0VKoCesPAZ0LBnL0XXXto/5eIBeN3mgYtyR6kJ4KVljby0dBttwXKi4sNSGu6eBwpNcAXWsjE1wdDAQVCWhaEUDk5qRaenHRbcrriGQ1bSxjBMbM3A1hRdWgIHE5W0IJmA3Fxq6msJhvw4McHQFbpPI2Edf8Nuj08PT3gHIsqdnLIULNnaxSuLVhP1FZFwNAQwsTCdOEGidNTtRzqaINZGyO9uv6n5gph5xUhOKV1mDjH8WKK7ChsACKbo6Ch0paOUn5huoNCxTZ3WSIDR936Vmnnz2bV/D1f/3bepefZFWnYcIl/XSGpQVlrcv2Xk4QnvQESApIItDfDrN5bR7C+iSwLYKAxJEnY6yLWaadmxAn/9Tnyd9eT5wEl2EQqFsDCw9CBNjh89/wJKh19GPLeKVsLEVABLGd3DYxJotAezqY3kkWg7huHEyQ6HsVeupmv1Fi7UNVp+9ydKsrI55Fi0GxYtWQFGTRjd38X0F48nvAOJlMaSAtpt+PPcpcTEh64HUJZC0wTdjhLSOjm4ZSnBpr3kSztZQbCi7eSEgyBRskwNn2FR5HSxb+9BjtXuwBwxg4LRM2l0dOKaho1CgC6lOBwOs7e0hIZjNRRHbcLVzXTUNFEpBoblkNh+mE6B4mCIWsdmzFUzYFClZ6DQz3jC28/0coShwMLBQGPR5g4W1yfRjWwsy8HGBOVgGEK84TBN+1dSkKyj3Y6ifD4MoNOJkRsJg5Mg3tFJXiSLSwcHOdR6jPUbX6O4qoy28HC6lIkjCg0bQyCqhVlVMpJQUuOq3RsYHW0mbEXRxXYVPAw/SVOn1qfhu2Qcka98Abo9aHiC2294wjuAcOVAoyYKLy3bQJeZh+7oKM3EVhpiJYAk9TUH0ZMxQpoiIIIhCUZfOJzx48ZRXlbMoMpSCnIiGFh0Rlupa+vkxQ+288amheROLaaTMEl87iy1EixJUh+MsLhqJM2aj+qa3YxqP0Z+rB0fSbo0m0YfZF88isHf+jrkZ5/cs6XHp4InvAOAzPqvA6v3N3OoKwGGiSUOmnJdK5qaQk/YHD1wgIKkhU+Lc/Xlk7j+qukMKi8DUfj9PnRNQ2wLKxnHQPBLgumjKtl+cBONR3aRXZVPqztdhZPaq9fWAtQFAqyrCnOspJQPGuuojDZQQTOjhhbRFmslNG4k8xfPZ9bXv96tsOUJcD/iCe8AwMn4tgQWb9xNpxFCc0wEq2dZCB1TN8nLziFe3cnQMeX81RXTCJo6SizCWdmIgFI6ojRi8SRvvrWUnXt2MWjYKMZWlLO0tYmgsulwbFeNwwFbGTgIAboozxE0FWKPnktrEkZNmMjWvesZcfEINtccIre0gkRbB76clHaVp8DTb2iQYe/p8anSV4HNAXbWw76aJgwxUNhouo6uGWhKR9DA8JFdUIQvGKayvIJkIkE8HmPuvDd5+OGHWbpsKUkrRjwZo6GxEUeEWdfPImTo5AcUYd1BbBtbMxBNR1OCpmx0SaBZXVTlCp8dE2GEr4YLsjvIz3aIZPtQ2Ji6RjgYZPXaNT034dWdfsMVXo5jsN3343HWyCzeTYcbaI06aOiIsnEEbEcQcRUaEw7kl5UTikTQDJNoNM5rb8wjlJ3D9CtmkpebR1tzE1hJcGwGDx1Cc2szpeXFDK4qIcdn43O60JTtKjgrBcrGFiGhm2zdv5eGXSu5utThM1UaFWYr44eXUHtoJyOGVFJ3eD9BQ3lqswMAz6irH8l8L3Z/bztwBEsPYqHjpIwKNBGUckC59kHK9KF8fpRhkHQcrrzmWkaMHUfMcUhYDq0trWhodHZ10ZW0eGvJUuqaWgj4DcoCcSpVPTnWMQySaRl0lEFSC5D0RbBtYfLwckYU6OTqHeQGbCaMGUbt4X2Ul5dyqOYIbZ2W+8L3BLjf8IS3n8ncucQBDjW0ImYwQ3AdNGxXlJXgAIFwhHB2Dg7uvkhocPhILa+8OY/61ibaYzFsx8LnN4nk5vDBB2s4erSOCyqKGZYDF6gGCmhGl4TbFU+pTtqikXBMogkhGY8S8hn4dB2fphEy/RQWV9AmAVbva6AhrqfH6h79g9tt9t6e/YrCfQYxoDFuYCkfIoLebRmkFLbjuMKqXAWLrOwsbNvCSiYpzMuhvu4IS95fiyM2pWWlxJMxAj6dgkiY3z35K+6+6wv4xKLED9mxZvJ0B00EO7W2LNgIQlKZtMZsjrV0YDsauuZHlIFthmkkwoLtjRxURWyt7dmL1+tC9w+GN6jtJyT1RwEoHIG2JByzAikDAneDIHcpB0QpLHHdSBXmZjP+qul0bJyP2Al8msYts2cz9ZJLKMjJJhGN0tLWTnZ2Nkfr6xkybAhBv06yyyHL5ycY1QmIiQbYysJRDoiF4fhIEKCxK0F9S4yysE4grIhbcKDNYsHuVnaZVXT4/BztjLtvfq/r3G8YQK/dyj0+ZTKcPiZscJTuvk5FENfmz93ZXmluN9UR9GgbdvQw+X6FxLogmUBLJhhUUgqSRBeHVatWEk/EyM3NIT8ni7gvgINJVAvSoAVo1YIkRXMnxVKjJ1EKS2m0xB2OtMcYrhm0HWvkaFTjrT1R9loVNPsj2LaDZaUM+vvei9cOfGp467wDCF2BnrLhTfs3d5yUOV8KpTD8AUoLBnG0diPNLS10tLVRVFBINNGFTRLRFJOnT6ets4PGxkbefGcxM6bPQAWz2dVms18KqZM84vhQThKlFKIUounYup99zR08u2M9H6zdSEtzC81GPv5LPsths5SYyiZA53HM/D0+bVLmJfSsFZ1sK0mPs0PKLY0CDCeOoxvY6GjioJTCFV8HXWk4uo/amKIpv4BA+YXU799EfcMxssLZ6JrOkhVLOVB7hFg8zpG6ejrbOrh6xkwKi8rYWdNAdUuS5qwQHfhxlAliuZNWAkkBUym6EkJjbQPtx3QszUc8L0SekUvMDONoBmK5Xjg8+hetsnyQO2Pp0a8oBX4dBvvaMBx3CslBuZOJym3nNFEkCNCgl/NOXTZrzQnsilzMspooO6vr0fwBrpx5DUHDT7K9kwtLS/j8DdcyY9okWtq72HyghTazEgmXo0RDVxpoIXQMlJjgaAQkTiKRxDR0TE3INnXs9naMRByfcrfFUUrIjXj+q/obwzRNvGa1/1ECIRMiAR0Vt9A0E0h7pkKp7sUkh7gmHHFCdPoqyCtW2Md2oNccQ9MOMuaCUr5002c5VldPJCuMSJJ4NM6+ur0cbY4RC+Ry7MhezNxyckI5JLQACeUjJmArBxHBsm1CSkMpG8tOYiejRFubMLMGYdlJ/JpDYZ7n27u/cX1YeZuM9S+pLrMfyMnOwmmOI6m9o5RSKe0qV0VSCWhiIOKnQ8LEjSCxolxi9Ztp3rqL5rYuhhRmk5MVpsOO0x7roL6zi7fXbGXlnmMkQiXo2UUkNR+WbhIuqiK7ciRZuZW0EkRJguaGOrI0ldr/yCISUrTW7SOvbCQYBiFNqCzp1xLzAAyllNtn8+gHMuYZNPe/QcUFsP8QyucuHyGChtazoVhq/KuUg6MgqflpJxszbzBPv/48ayMxJlxQTEF2gHgyRns8xoade6ht7qK0ajBl+RqWfYykA5aj01VTx7HGveSNuJy80jGIbaE7SXdXE81NK6DFOVJ3gMJEGwHNpDCsk+/DWyLqZwxPcAcAqUdgOzBh9BBe23SEFhwstJ4tgURSXWcADcSdgzaVjQ+hub4eMxSmLtbB2xu2YiXjJC1XN9rnD1F+wUhycnNxbNBTi7OmAh8JwlYDHTsWEbK7iBRWsC/WgqO5S0eapqMrRSAZRe9sRTeCTB4+jNzufHveNPoNb6looCDg02B0JZRG/LQ1d6Hrrj8qtwPtuJ4iU3pXjtLQETQ7SdDp4sCeTZQWRigO50C8A8tKpqTevdo0TXTdxLZtbNtBHFfyfJrC7wg+4rTvXI1qriZXj+PYFlbGlgg+SWIkWghIhCmjKzI2dv4Uy8ijF55uc39xnEpvANnAlLFDMZw4unKteF036hqCDm4nmoATJ2K1EGo7QM3a+QSjtQSdTpx4zG0tdRPT58c0TUzDRESwbQdN03Fsh0QigW07KNHRxSRgW+Q6rcRrtuK01aE5CRxxcJRydx+041gdDYwtjzC2xF2P9uhfvJZ3ICGCrhQzJ+SxeI1GdTyGpWk4ortKFCmJNyRB2Gqmee8a2vetJdtuoUCPYYiNFUtgKYXpc1tZxN2LKhgIomkKx7ZxbItoVyeGoaOCAfw+H0oUprsvGaZyNyPTnAQ4PmyUa9UUa+GqSSMJ4TW4AwGv5e1PPqRW7u5+cEEYbrx8AmasGb+yUgoR4uogqyQ+Omnat5a2PWso1KLk+4SQAQGfSSgUwu/34TgOtu3gOA5+v9+d2nC6FXIgHo/T3t5OLBajM9pFAiGpdGxloBuGmzXH/Wi2QwiHwflBLh9V4FWaAYL3HAYCGU4PNNzu0MxLcxhalIVhdbp2t+KqbejEoauepv0byTfihDUbUyl0w0TTDXRdxzR9BANBQsEggWAATdN6EhAAjUAwi2hCqG/qoKm1i5aWVrq6OnBsm1AghBINEQNxwFQaAbG494u3EoAegwSPfsUT3gGGAkyBLIGv3DydsN1GUCUwcDDEJiBxWmt2Y1ptBPQEijhKd9yJKU0DTblaUJpCaRqapqFrOppmABqO485q28pHoKCCMVfeSCMRmhMa0a44VlcUEz29jYpCkYwn+MLtt3PZpRPB8bTxBgqe8A40xG15c4CJ5fCl2ZcTJkaAJH47iRnvoOPIAfL84MNCVw62bWFbSRKJBPF4nGQySTKZdPfmdVytqe5udEomSYpGqwTwD57E+Fv+lqNaIfUx6EwmiSfjoBSO47qIHDN2DH/7t39Lamezfiwcj0xc19meSeCAw1QQAmZfnMMVoyqIWC1kO+04LfXEW47hS81Ek/rEExbxeALLsrHslF9WEXDcXQMdy0KJ435ch82I4aNDfFg5g5j++b/FGDSe6k6HNhtsTUMUZEeyeeihh/AFzP4rDI/joimlPMOEgUTGWDIgkA9898Zh3DmxlIrEEfytRwgkLZSTElxRWJZDNJ6goytKPGmRtHsmq8C11xYRHHGQlPDqWmo3MxRx8dFkljN45tcpmXI71R2Kxo4uCooLeeq3TxIKB/qjJDxOgeHuSOe1vAOKDK90OuAD7rx+DNmhAM/+cSdBouiOgUrZHjmO4+7Fa9nYto1huIpz0u2tA1I2SuA4Vup5a+kVZERDtCzaVBaFF32G4uIi8mLV/OJ//4CcLMOzsR+gGJ5+6gAm9WyM1Cz0bTOGMih4Oz/+4Vq6OlowwiESlpNaA3ad0ale6q6SHhF1b7ztON0fGyelbikiaEohYqPrMHv2LL4ys5xsup3xeAxENPeBe49nIKPE1WjSgcmTxvL8H3/HHZ+/DZ+ho6VGvspxBdHQjfTSkOP0vJkVguBg42CLg+UIjijQdNBAkyhjSnx8765JfH1mORHAJ67XSq/VHZgo0GXSxImsXrMKpXmPacBxPMX/VNjRQ4f53R+eZtmK5dQfayCZTBKJRNB1HaWUuxuRrgPgiNulti2bmOXQYSma7QDTbrid8iGDuXbGZKZdmEsOfVtar9M8UFGgZNLESZ7wngtkDnEyHlUynuSll17ivUXvUV9fTzwWx7ItdKX1+IS2LWzHFV7TH6SwpJKxF0/h6//jGxRkuV4pVWY6XlUY8ChQcsnES1izZrUnvOcJnR2dHDp0iLraIzQ1N6MphaZrDBk8hCFDhhAKhdB8KbX27hdC965/3dpe3khqwGOA9BobeZz7hMNhRo8cxegRI8E4gRTaqeXBbqWLvntVZeLZ7A5IDADD0Ps7Hx5nEkVqAzHlThdn7qmSeTyTk7W0ntAOSAzwvOCcl/TdwexD4er4xz3OGTx73vOV4wmlOsVxj3MKb1rCw+McxRNeD49zFE94PTzOUTzh9fA4R/GE18PjHMUTXg+PcxRPeD08zlE84fXwOEfxhNfD4xzFE14Pj3MUT3g9PM5RPOH18DhH8YTXw+Mc5dwXXs+PgMdfKB9feE9HaCTjczrXn+jcvnFJRtgnyZ+HxznMxxZe6d4u8rgHU9/dG9OJuOdnbsxwKnvTzHgy4urlHO1ENqme4Hr8BfCxhVfpqrdrlV4He36KLeld604kbOII3Tuu9Nq94Xjn983xiV4CnrG5x3mODvyooryCb3zjG3287Z8CgcbGRhYvXkxHewd5ufksX/7/2jvzKDuK89D/qrrvvbNpnxmJAS0ICSRbLJEtFuOAdxKWvCgvfpyXnGMnOQfngOHZzh8x+Pk8k5hjA4lJ8CJbxoATQCyGRLLNkxSweCCEhAgiCAESCM1oRqNZNZp95t7bVfX+6L7r3G3uLNKI+p0jzczt7uq63fXV99VXX321m+bmFqoqK+ns6OTtt95mZHSE2rpaXt75MosXL0YIwZ5X9hCJRNj3+j4ajzRSXV1NW9txDr17iNHRURbULkhq2Df2/RcnurqpX1jPO2+/SzgUpqKygsYjjRx89yCLFy8GAy/seIG5c+dSWVnJ0aajHH7vMPV19ex+ZTeNjY040mHOnDlT9RwtlmmnLM1rtAEB9957L1VVVbS3tzM6MsIjjzziJ/uWDlu3buX9w+/z6KOPsW3rNna/spu9e/ei4oqnn36ajo4OtmzZQigURgjB5s2baW1t5eGHHmbH73Yktfr2bdu49x/uBeD555+js6sTgKeefIrHNz1OZ0cn0WiUDT/dwLZt2wD4xS9+wdPPPI3neTz08EOEw2Gi0WhQ+Yk/NIvldKA84Q1M2/nz57Nz506uvPJKPKWIx2K89NKLxOIxampqiMXiVFdVoZXmD6+9lp07d/LSzpdY/ZHVRCIRek/28soru1CeQgqJUgqDSWb5R4Druqxfv56NP91ITU0N0WiUzvZOjDFcf8P17Nq1C9d1qa2tZe/e1+js6KSqqoqamhoMBikddu3aRVdX16Q9NIvldKAs4ZWOf9k3b/8mn/70p/m7v/t7qqoqAbjttttYdNYiRoZHGB0doedkD5/57GdYc+FH2b9/Pzt27OCqq65CKUX9wnpuvvlmFi1ahMEgpCQ6GuWKy69IasiR0VE+99nPsXfvXlqaW6isqGT3nj0caTzC8889z549e5BC4jgOCxfWs2nTJq688kqGh4eRUhJyXf76K3/NxRdf7Bdox8KWM4SyHVbDQ8Pc9d272Lt3L/PmzSUe9xgaHuKhBx/i7QPvgICLLrqIa665hh/+8EcAXLjmQtra2li+/Dy00nR1dfNzE6YqAAAXsUlEQVTwQw9z+PBh4vE4F1xwPp+48hM8+OCDSSEzxt++8qu33srBQwdRWvHii/+Pm266idvvuJ14PE7T0SYGBwdZ/8fr2ff6Ppafu9zX4sYwOjrKvz7yCLt2vRIUOOFnZrGcFgjArPv4Ol599dVxb3dyvPU40dEoDWefjeNI2traMNowd968YJ9Yh1mzZ3Gs5RjnLD6H/r5+BgcHaWhoQHmK1tZWDIba2lr6+vqprV2AEILu7m4WLlyIdCRdHV3U1deBgWOtx1i4cCHt7R2cc/bZCEfQc6KHSCRCf38/ixadRXt7G4sWLaKtrY2Gsxs42tSMlILKykpq62qn5ilaLKeACQlvTvJsUmW0SZVfaNPX9OsLbbORvhOAxfIhZPKTrucRpoyOodStNQoJ5swP7LRYJoQVAYtlhmKF12KZoVjhtVhmKOUJb7Cyx2js1IvFcoooz2GV2B1S+AsP4nHPyvAZhDGmSJx7sKJsqveGNSZoa8XvU7zOE6pI5q/juE/hehkE4IbcZODTeCjb22y0QSlFX18/Whm01sHyv1Sly2HsFzVkLDTK8zITD6nc+1rSMKZIAz39hLd4nSdUkcxfx7WAp1C9DFKC4zhEIhFmzZo1rqnP8oTX+MIyMDCAF/eC/oOM75hPyMYUVPQcUdKzSgh9pvCnlT+lL/cMo+hzyr+8c9rqkf0+p+rdGgMiTSsWbdLjqZevbDxP43kjhEIRKirDJVetbIeVUgqlVPBlcqXMKOVhTnULmIaXazk1TNf7HO99xl2vVKTR8NCw/1HCl1TEiCzbbNZK+4vox5ipVkgslvEghcAw/iHfxKaKrJxaLJNHLnkqIM+THx6ZceMSxpljnBIm6Q/B+MsEc1xE+lhWOg5KqWC8GxwL7p3L05e8kwksh3GaOhnjeWOQQR211tbrbikPYxCJsXWhXG5pTE2QRkL9J5PPachhEgghMBhCbshfIaF14gCO4+CGQjiOxEkTYMeRCAQh10VKgacUUkqk9Nf0OtLxhUuAI2VyRJGRs074a5KFlAiZJuAlmi3GBP8Zg8Ef/0tHJrsUa5BYxoM2BoPBGF385DSmRHidQBP2nOjhaFMTcc/zk9AJ0gTEn15ypMOb+9+kqakJx3WQ0kEKX3NqpTAGurq7cV2HkOvS39ePdCTxeJzh4RF6e3vp6+1FCkEsGkUIwX/8x3OE3BCe5/laUQhc18VojeO6nOg+gVIKrRQiPYteoLlFIPh+R+F/nBRIk/St47ouvb29dHV1+VpX66BDslimnvKFV4xVVCIQulAoxB133MH3v/99nnjiCT9XVTiM47g4gRCCoCISwQBHPjhCZ1dX4ADT/oS1EMRiMUKuy4033khlRSXxeJzLLruM3pO9tLW18dVbbuH48eP09fWxfft2+gcGQAieeOLxpLkthAgEUKC0ovXYMa655hpOnuzFU35wScgNZQjlr576FeFIBEFgAbgujutijMZ1UyMN13UZGhqio7MDrTRuyD8WCYetc9sybsQ4bbays0cqpRkdHc1opFJKPKV46cWXaG1t5f777+fKT36SC9esofXYMb7xjW+wefNmZs+ZzQUXnM89d9/Do48+ysGDB7nkkkuIVET41re+xZbNW1izZg31dXUIKTh+/DgLFizgueefo39ggHPPPZfmlmbCoTBz5swhEolw++238+b+/SxdupTf/e537Hv9dTZv3syqVauYN28ecc8jEolw5513snr1Kvr7+1n38Y+zYcMGduzYwQO/eIDZs+fw7jvvcPfddxOPx1l5/vl8/Wtf4ze//g3RaJSPrV3Ld77zHV7auZOHHn6IVatXMToyyuDAIAsXLuSO2+/gmWeeoX+gn0suuQSdnEqzkmwphsBxXSqrKkq+ovzY5sxfAIFShprq2ezatZsrrriCwcFBtPbT0dxyyy38bOPPeOrJp7jn7nt4/fV9NDc38+ijj7L8vPOoqa7m1q/eyldu+gpf/vKX+ad/ug/HcfDiHtd84Qv89tnf8suHf8mdd97Jtu3bee2117jmD/6A5uZmhBB86lOf4q7vfpfLLr2U/r4+vve973HzzTfzwAMP4HmerzUdh6bGRr7+ta/z7LPPMnv2bN7cv58bbriBzZu3cPfdd3Ptdddy+eWX8+3/8y1+vnEjf/GXf8mmxx/nrrvuYmR0lD179vDNv/1bvv2/v839/3w/8Xic7u5u7rnnHr74xS+yadMmfv3rX9NzogdtdMoJYbHkIOk0NVlj3hLmeSfUsjLNZoEUgng8zpIlS/jggw+CcaYftjg4OEg4FEZIQXVNDUePNrFi5QqGBgdZseI8RkZHONHTw9atW3ll924+//kvgBB4ymPdunX85je/xQ2FWLv292g8coQDbx1g9epVvpc5cFxp7ee7ql9YT2WQEE9rjZQSISRPPvkk0WiUW2+7jZbmZva9sY/KigqWLVtGPB4jFHIZGhzCcR1iox59/f2sXLmS7u5uzlu+nMGBAerq63Fc1/dwa42QgoqKCrq6u5i/YD6xWIy6unpOnjzph2xSfqioxVKISVULQggGh4b4sz//Mx577DG2bd/GWwfe4tChQ1x3/XX84L4f8G/P/BtVlZVcfdXVbNmyhfb2dn6+8efU1Mzi+uuuwxjDjTf+D+rr64NpGD/uU0rJn6xfj+O4nNXQQENDA1WVVb52Q/hpaF/eSV9/H1I6uI7rO5GCqZzqqip++KMf8ct/+SVPPvkEP7jvPn7ykw1UVFQghEAKiTEwZ+5cDh/+gMamJq6+6ir+5m++wdGjR+nq6mLJ0iUAqMARFg6FUJ4iGo3ypS99iX/8xx/w6quv8v7777N8+XKEkOgpDZi3fJgpL4eVhmgsxsmTJxFJx1XgIMJBa0Uo7LBr1yuMjIzwsbVrqa6u5uDBg4xGR/nY2o8RCoU41nqMpqYmGhoamD9/PnPnzOX1fa9zsuckF110EbW1tRgMsViMYy3HWLRoEY7rMDAwgFKaurpauru7mTtnLo7j8Nprr7FixQp/XLxsGcMjI3R3d7N0yRI8z+PQe++xatUqBDAaHaW9rR0pJcuXL0dKyYEDBzj/gvM5erSZjo52Lr30Mo42NdHS0sLatWuZNXsWjUcaWbZsGcMjw7Q0t7BkyRIGhwY555zFvPHGG/ScOMHFl1xMTc0stFYIIa3mteQl0TYEEAqHWFA7L9NkLiCSky68IIMJZz/AIhnQENj2Qgh0MKWS8FgbrRFSIqVAa5Ph45FSEovFcB0XYwxKKxzHQaZpNSmFH66JQQRhZiowl2UQqBH34jjST+YuhEApRSgUQmnte7iD8jCppO++Se7XKxaN4bhO8qH641mB64Z8TRzMPxt8U91iKYWJCO/URFgF86WJRpw2k4oIKmuSP0kGc2gVfCYEIoiy0tqkBAtfmDG+8CTKUSYVF2qCtJIymCJKOASkkKmdQY0/VvU8z++w0spDBMInBARLDJXnTxGlorEMEumfq5R/nvYn2jO/bymrpiyW8piy8EhTwu+pP0Tmn8akCVp2+GKOIIgMszQ4NztYIquMxA+Ttj5TCuF3EsmVUqlrTUYZqaiNVMjJmEphBdcylZTnsLJt0mKZAsYnWGV7m50glnhsNG8JE1SnKRnT1zPzK1hmICIYoslxzkqUrXndkEs4HEaIhAAnmLktPzVunoxvYM0TS3ESMf+OlFRVV6cdoGgTmtCYd86c2Zzo7kHrmSmsFsvkUl6HLYSgZtYsIhUuRmVm3SnExBxWAhbUzQfAqJmrcS2nG2OFIOn+S65ME9lHMi/PGcJb5F7J6/KkcxI5DmVULHfpuWqQy3+KKV1wYSLCm1FxEI41Ey2TRY4EChkymn28UNvLJz6Frs2Y3CxwbWmUVEIZem/CmrfIBxbL5JC3aZXS5sppl9Pclsu4nV3yYrHMUKzwWiwzFCu8FssMxQqvxTJDscJrscxQrPBaLDMUK7wWywzFCq/FMkOxwmuxzFCs8FosMxQrvBbLDEWCv82Cscv6LJYZhb8wQQSZEu3KIItl+ilTb7oQbLVpDEYZP5uilWGL5bQh386fLvjpVLXRRGNRPE8hghzJdm29xTL1FNKVibzj2SitMzWvF/f8/XdMIiG6lV6LZUoxhYVXQ84TdFJ4SSQe9/f1MVZwLZbpQRQ2cPMdM0IkNxjyf4hgRwI76LVYTntcSG0JkvpnNa/FMn2MP9zCmPQcVkWVbfoNspNzmbR/VmtbPgyUkFg5Sbq8ZOc4L//+SeFNaFp/c7Bc21Jm+6vTM+yZtON2hzyLJTfZwp6QHweDA6hceTNzlpSheRMmc6LQscKb+bcQEl/IBUI4/lafOc6zWCwpsqd9/ClZgUYBGjlm07zcJvU4hTcdiVYuruOgFLS1w8BAQmyt2WyxlIoUgvnzYGGDixd3McSAOL40SfIpw6TwpjurgkN5hdfvOVyklLS2GjY99l80t8RRuoIp3DHUYjnjMMYg8Ai7cT5x5RKu/6M6wuEQCA14FNo1qyzNa4y/k7xWkqeefJvGRgfXXQwmBDiT+uUsljMZAThCg46z++VWFtbP4/evdtDIYMvphC8px/YvxpRhNgsFAk70GFqOxXHl2XhxgREKpHVWWSzjQRuQxkVQzxv7mvn9q5ahjabQtu3+xwWEt5C6NhiiMYPnxYlrD4TjTxJZ2bVYSia19ZJBCMHI8AgmY9o1PwaTGvNqrQPhDaaM8i1lkAZPKTxPYNCgFUL65jTj3BzYMhUUm2vPswPeuMqwTCbagOMYtFEYo5MbIeaVQfKOef3527zO5nTnlvGXEGqt7QTRtGMQQmZ0uIDfiwdTeCAQwn9XvqPRBNtjBtHwJoiOFQmLKlGGBpM+TWGSi1dykx6sYymVhD8ZNDp4L0IYlE7IY4Fr081mrXUQoOG/dJ1rnldo0BKtBcZolE40BBkEWKtJ/nqW3Bj8vAmBQ0MY34mI9LOiQLDRa0Iig5ViJrFWO02IkWA8BE7aKEsH56WcJX6Z0/YFPzQoAOEgjEIbg9IajUInNHCeDDdJ4TXGYDKcVLl62ZQtnugVBAad0MTJcyxTjUDh6RFC4ShLl55Fb+8APd0xDFUkjSkDiUg5gcAIgcAJVnYHDhEhwYQwOgxC+U5HwExaCJ+lFIwxaBl0xcYghA5mdSjgr0p3WGmTpnlz2duB5hUJLS2SQm9DI6cZMcBHLpzNn/zpIo4fh8rIAn6+8U2isSqkqAYgHleEQhG05/silPYwJo7jCpQX47wVS3BDgqYj7XieQyjkEI1HgQh+B+BiVe30YBCBsCqU1kgZpKUy+Z9/hubNNJuLC6/RAtAQzPsGbq6p+G6WNIQQuG6I9X9cw09//B6dHQNoLfjoR5dz4UWzaTgHNm/ez6rVK7n00kpe3Q1bt77A5z53NevWSbq74dn/+zLrv3gekTBs367p6x/gT//7Kjo74Ve/aqKvtzoIf7XCOz2I5Bp6gSbuxQDfo1zUbIbsMW9h4TVao02gea3wThtCCLTR1MxyiHua5uYWZlV9FGUkCI+FDZoNP3mRFefX8ntrI9z59xv53l038ereELt3v8DLLw/yV391A7V1Nbx1oIeuri5e3LGXH2/4c/7hvn/nk5/4LFd/egn//sxxHGk173RhcDBaYXRCDg1KeaVp3sQfxRcmZI55x85J2fHRVJLwGo+OjlJZaaiscjFmCGM04fAsujsNfSc9qiJ1REKG/3bDjby131AZMXztf32KQ4cUc+cb0BIpqtBKMGf2ApRn+MzVn0erMEeaBnAch4KuTsskYwJfhC9LWidmcwpcMRGzWWuRMpmt5p02DDA8HOXwYc2tt13OCy90UFVRxdBQJyPD80BX0drcB3oBHxxqoX5RAyMjURxH8867B1j9kQuRjsvAwCAXXXgu7x1sorNTM9A/QEfHAH39NWhtAp+1FeCpJxBcEcfoeFIOdSKXXL6ryjObRbJn8P+pNOG1L7tURLmPShi0DvH4Y02sWFlPXV0drS1dnDgxQv/JDirCS2k/PsKGHx9j5crzOXnCY2hwDg8+0Mb8+efxwMaj9PcJhgZbGOhzmTt3FT/bsI+LL16DI+fT2dkF2sGUXcGpZ7qqVkB2/How0RYfdJAGjPCnh7TSaJVtCee6NE3zKqVQSiWrpHNqUb9HNkZhFAg8v4c2nh8UcBq/8FNB8nHkmHkxWR9I/8mSa5yZ+DQ5RYtLfKSSt9/swZEmSBw4l94ehSNnIUSEro5RutuPoww4ziKajng0N/UCYYyuRMo57Nt3ArSDI89iz+5OfzpJhP2F4RkN5/R5ryLLmkzEnmTEiYhU9YXI/CoCxryPXEJYkt2ReJdluwZSw1ChPdAeXlyhVfYsTo4rx2heU0jz+ojAYeWb6BqBws8AIE+jV3waMI62H8S0FT05dUSACSFFKGiYAh28LkU8ODkMIux/pv2/tU61c6UBajAYlEkZyanVLJPzNsdTSnoHVXKCmVyPzeQ4nn6oSKWyPTm5yNZT4x8w+neQEIQWK8CgPI02QaBMKcKb0LxaJU42qLzCK9Ba+g3B+OsOjfHTeFjhTZHQEKU0wlKeW85zxmjx1OcmO0sRadoo+3STLrinjqQSLeyrmXQfeD6tW0ggZXoHkaOM0u6a6LIDv5FWKK3wFIEwlxDbbEh3WPnk17yJAXUgvIn1vYisyJwPNzKti5/Kp5Kv4eRrkPmyKOW6ZrpJ2n0FKjIdLawUzZuuwXWRcwvfxVeeCJ20an3XUzHNm4ilM4wZ86q8mTQ0Wqugl45hTMzXvAJ0+cb/GYlIqt9CQf0TvcnEhC6h7U614EJa5yIEJl+NimjlSalHCc80GK1M5C4kNK/vrBoF6fma1zMI6ZHqzgosxh87VZRrYYKPFBq0pr4WFp8zm0OHOnHD9WAiiOQqFDtl5PfMgVGUa9w1qTcq/dSEOZ2r3Z0Ofe9psdOsKS6cJusZlvfsfOevlnGGR45x7bpL8eL+0lyjSxzzQrbmFTk1r7+sLBaYyg7XXbeUuPcBjY0tSLcmWIZmAZLDikJrMi1jmfj0y8xBAFp4CMfj819Yw+rVipgHQnoYnchhlYcMh5VOF16Zt9H58hlDihBVs0Lc+D+XMTgEsRjI8Sd+P7MJ+jJjghV6FksOhIDZs0ETBx0luadnoSANksKbqXkNOu+YwzesJQoPg4fBUFVtqKrW/oZlliQa31pJJBgxaf+lm9W+RZOaqEw/lkSI5HgwcSx9HJ2ZDzgYMxr8/ZYT9QkckgKR8/NcTMobFZkto5AXXgTrkPPpHEFqPGzS6i3SNEficxFsj5ksy5jkcFAW0TQmT4KJjKcsZbBwoNhcoBj7PjMOS7Q2+EvzU9/JlOSwApRnUCqIoDLp2RdykW/R/YfF4JlsSp8syhZS8M3z7FeV9PzrxLUmeY1BZA2ncjXk1PnBTTCU0FAL1L0Y/ncrltAhvaNLGdkpQU5lABm7yjzVQfqJJAp1TXmSnSevMhmdR+76BecVGzr5EU9B4vVc5eUm8DanRVgJidJ+IfmF13KqyPVOCne0k4QppA8nhzO1vZU605DfkhqLECJlNnueh9YKIUzKjDozn6XFcnoyjsiUlPAmgzT8yeJkJkkrvJYAIUSGT8OPyBq/J32yyjkjKUd4gYwIK611KuA77eRiar2Y+ZZpPhSaFBj/hEH6fbPvU4o1lm3a5P5+5K1XqSZfoTKyHTsTodC7yukQy1mdtOsCs7nYBnRF64XIccV4ykhzAAYD0IwRZpoTMPezzmwPxd5p4njh7Jl+uZlktsHJDtIxpDmsvHg86YnTRo/5PmNWZ+RoZcbk/jz9eKoAJlN2c7yQVFklxRfn+L5jzkn+V/j+Be8zCWWUdJ8S3lUxxl53Kkwxk/nMcr7PNMdVcF5eB2+2sKeXnX2qSB3PKK/AY5iueWoppC+8sViU/9y3Dydwn+eaOsiuVM4InTyfpx+fKsa8kDzH8lHKNePpd0u9T7nljOc+hXTCdNRlooznfabLVyHdkK/s7PNKKS/fNVONAMzcOfOIRqOEw5ExCxQmG1OkayxmfibmL8d7Xcn1mqTyTjWlDHGKIYTI+7ynjQkOJTLqLxgTi1BoCJGcIzalmM2puo7LRE67pqR7kPAbwP8Hgz80rIk0d7YAAAAASUVORK5CYII=&quot;&gt;&lt;br&gt;&lt;/p&gt;&lt;/h1&gt;" style="text;html=1;align=center;verticalAlign=middle;resizable=0;points=[];autosize=1;strokeColor=none;fillColor=none;" vertex="1" parent="28">
                    <mxGeometry width="340" height="580" as="geometry"/>
                </mxCell>
                <mxCell id="33" style="edgeStyle=none;html=1;exitX=0.5;exitY=0;exitDx=0;exitDy=0;" edge="1" parent="28" source="28" target="30">
                    <mxGeometry relative="1" as="geometry"/>
                </mxCell>
            </root>
        </mxGraphModel>
    </diagram>
</mxfile>